<?xml version="1.0" encoding="UTF-8"?>
<svg width="162px" height="121px" viewBox="0 0 162 121" version="1.1" xmlns="http://www.w3.org/2000/svg" xmlns:xlink="http://www.w3.org/1999/xlink">
    <title>merge-json-light</title>
    <g id="页面-1" stroke="none" stroke-width="1" fill="none" fill-rule="evenodd">
        <g id="merge-json-light" fill="#515151" fill-rule="nonzero">
            <path d="M62.9007635,121 C59.8473283,121 56.4885497,119.778626 54.0458015,117.335878 L3.66412218,66.9541985 C-1.22137406,62.0687023 -1.22137406,54.129771 3.66412218,49.2442748 L48.2442749,4.66412218 C53.1297712,-0.22137406 61.0687024,-0.22137406 65.9541985,4.66412218 L116.335878,55.0458016 C121.221374,59.9312978 121.221374,67.870229 116.335878,72.7557251 L71.7557252,117.335878 C69.3129772,119.778626 65.9541985,121 62.9007635,121 Z M57.4045803,10.1603054 C56.4885497,10.1603054 55.5725192,10.465649 54.9618321,11.0763359 L10.0763359,55.9618321 C9.46564895,56.572519 9.16030538,57.4885496 9.16030538,58.4045801 C9.16030538,59.3206107 9.46564895,60.2366412 10.0763359,60.8473281 L60.4580153,110.923664 C61.6793894,112.145038 63.8167938,112.145038 65.0381679,110.923664 L109.618321,66.3435114 C110.839695,65.1221372 110.839695,62.9847328 109.618321,61.7633587 L59.5419847,11.0763359 C58.9312978,10.465649 58.3206106,10.1603054 57.4045803,10.1603054 Z" id="形状"></path>
            <path d="M105,115 C101.647059,115 98.5989305,113.773333 96.1604279,111.32 L51.657754,66.24 C49.2192514,63.7866667 48,60.72 48,57.3466665 C48,53.9733333 49.2192514,50.9066665 51.657754,48.4533333 L96.1604279,3.68 C98.5989305,1.22666673 101.647059,0 105,0 C108.352941,0 111.40107,1.22666673 113.839572,3.68 L158.342246,48.76 C160.780749,51.2133333 162,54.28 162,57.6533333 C162,61.0266665 160.780749,64.0933333 158.342246,66.5466665 L113.839572,111.32 C111.40107,113.466667 108.352941,115 105,115 Z M105,9.2 C104.085561,9.2 103.171123,9.50666673 102.561497,10.12 L58.0588235,55.2 C57.4491979,55.8133333 57.144385,56.7333333 57.144385,57.6533333 C57.144385,58.5733333 57.4491979,59.4933333 58.0588235,60.1066665 L102.561497,104.88 C103.780749,106.106667 105.914439,106.106667 107.13369,104.88 L151.636364,60.1066665 C152.245989,59.4933333 152.550802,58.5733333 152.550802,57.6533333 C152.550802,56.7333333 152.245989,55.8133333 151.636364,55.2 L107.438503,10.12 C106.828877,9.50666673 105.914439,9.2 105,9.2 Z" id="形状"></path>
            <polygon id="路径" opacity="0.5" points="118 63.7567568 86.2629107 95 53 54.8738738 81.9906103 27"></polygon>
        </g>
    </g>
</svg>