<?xml version="1.0" encoding="UTF-8"?>
<svg width="153px" height="136px" viewBox="0 0 153 136" version="1.1" xmlns="http://www.w3.org/2000/svg" xmlns:xlink="http://www.w3.org/1999/xlink">
    <title>编组 2</title>
    <g id="页面-1" stroke="none" stroke-width="1" fill="none" fill-rule="evenodd">
        <g id="编组-2" fill="#515151" fill-rule="nonzero">
            <g id="merge-json-light">
                <path d="M59.4062766,114 C56.5224767,114 53.350297,112.849284 51.043257,110.547852 L3.46055984,63.0808151 C-1.15351995,58.4779509 -1.15351995,50.9982967 3.46055984,46.3954324 L45.5640374,4.39429693 C50.1781172,-0.208567297 57.6759967,-0.208567297 62.2900763,4.39429693 L109.872773,51.8613337 C114.486853,56.4641979 114.486853,63.9438521 109.872773,68.5467162 L67.7692961,110.547852 C65.4622563,112.849284 62.2900763,114 59.4062766,114 Z M54.2154369,9.57251912 C53.350297,9.57251912 52.485157,9.86019819 51.9083969,10.4355562 L9.51653948,52.7243707 C8.93977957,53.2997287 8.65139953,54.1627657 8.65139953,55.0258028 C8.65139953,55.8888398 8.93977957,56.7518768 9.51653948,57.3272348 L57.0992366,104.506593 C58.2527566,105.657309 60.2714164,105.657309 61.4249364,104.506593 L103.528414,62.505457 C104.681934,61.3547409 104.681934,59.3409879 103.528414,58.1902718 L56.2340967,10.4355562 C55.6573368,9.86019819 55.0805767,9.57251912 54.2154369,9.57251912 Z" id="形状"></path>
                <path d="M99.1666667,108.347107 C96.0000001,108.347107 93.1212121,107.191405 90.8181819,104.88 L48.7878788,62.4079339 C46.4848485,60.096529 45.3333333,57.2072727 45.3333333,54.0290908 C45.3333333,50.850909 46.4848485,47.9616528 48.7878788,45.6502479 L90.8181819,3.46710744 C93.1212121,1.15570254 96.0000001,0 99.1666667,0 C102.333333,0 105.212121,1.15570254 107.515151,3.46710744 L149.545455,45.9391736 C151.848485,48.2505785 153,51.1398347 153,54.3180165 C153,57.4961982 151.848485,60.3854545 149.545455,62.6968594 L107.515151,104.88 C105.212121,106.902479 102.333333,108.347107 99.1666667,108.347107 Z M99.1666667,8.66776859 C98.3030303,8.66776859 97.4393939,8.95669427 96.8636364,9.53454546 L54.8333333,52.0066116 C54.2575758,52.5844628 53.969697,53.4512396 53.969697,54.3180165 C53.969697,55.1847933 54.2575758,56.0515702 54.8333333,56.6294214 L96.8636364,98.812562 C98.0151516,99.9682645 100.030303,99.9682645 101.181818,98.812562 L143.212121,56.6294214 C143.787879,56.0515702 144.075758,55.1847933 144.075758,54.3180165 C144.075758,53.4512396 143.787879,52.5844628 143.212121,52.0066116 L101.469697,9.53454546 C100.893939,8.95669427 100.030303,8.66776859 99.1666667,8.66776859 Z" id="形状"></path>
                <polygon id="路径" opacity="0.5" points="111.444444 60.0683493 81.4705268 89.5041322 50.0555556 51.6993521 77.4355764 25.4380165"></polygon>
            </g>
            <g id="merge-json-light" opacity="0.204775856" transform="translate(0.000000, 22.000000)">
                <path d="M59.4062766,114 C56.5224767,114 53.350297,112.849284 51.043257,110.547852 L3.46055984,63.0808151 C-1.15351995,58.4779509 -1.15351995,50.9982967 3.46055984,46.3954324 L45.5640374,4.39429693 C50.1781172,-0.208567297 57.6759967,-0.208567297 62.2900763,4.39429693 L109.872773,51.8613337 C114.486853,56.4641979 114.486853,63.9438521 109.872773,68.5467162 L67.7692961,110.547852 C65.4622563,112.849284 62.2900763,114 59.4062766,114 Z M54.2154369,9.57251912 C53.350297,9.57251912 52.485157,9.86019819 51.9083969,10.4355562 L9.51653948,52.7243707 C8.93977957,53.2997287 8.65139953,54.1627657 8.65139953,55.0258028 C8.65139953,55.8888398 8.93977957,56.7518768 9.51653948,57.3272348 L57.0992366,104.506593 C58.2527566,105.657309 60.2714164,105.657309 61.4249364,104.506593 L103.528414,62.505457 C104.681934,61.3547409 104.681934,59.3409879 103.528414,58.1902718 L56.2340967,10.4355562 C55.6573368,9.86019819 55.0805767,9.57251912 54.2154369,9.57251912 Z" id="形状"></path>
                <path d="M99.1666667,108.347107 C96.0000001,108.347107 93.1212121,107.191405 90.8181819,104.88 L48.7878788,62.4079339 C46.4848485,60.096529 45.3333333,57.2072727 45.3333333,54.0290908 C45.3333333,50.850909 46.4848485,47.9616528 48.7878788,45.6502479 L90.8181819,3.46710744 C93.1212121,1.15570254 96.0000001,0 99.1666667,0 C102.333333,0 105.212121,1.15570254 107.515151,3.46710744 L149.545455,45.9391736 C151.848485,48.2505785 153,51.1398347 153,54.3180165 C153,57.4961982 151.848485,60.3854545 149.545455,62.6968594 L107.515151,104.88 C105.212121,106.902479 102.333333,108.347107 99.1666667,108.347107 Z M99.1666667,8.66776859 C98.3030303,8.66776859 97.4393939,8.95669427 96.8636364,9.53454546 L54.8333333,52.0066116 C54.2575758,52.5844628 53.969697,53.4512396 53.969697,54.3180165 C53.969697,55.1847933 54.2575758,56.0515702 54.8333333,56.6294214 L96.8636364,98.812562 C98.0151516,99.9682645 100.030303,99.9682645 101.181818,98.812562 L143.212121,56.6294214 C143.787879,56.0515702 144.075758,55.1847933 144.075758,54.3180165 C144.075758,53.4512396 143.787879,52.5844628 143.212121,52.0066116 L101.469697,9.53454546 C100.893939,8.95669427 100.030303,8.66776859 99.1666667,8.66776859 Z" id="形状"></path>
                <polygon id="路径" opacity="0.5" points="111.444444 60.0683493 81.4705268 89.5041322 50.0555556 51.6993521 77.4355764 25.4380165"></polygon>
            </g>
        </g>
    </g>
</svg>