<?xml version="1.0" encoding="UTF-8"?>
<svg width="136px" height="136px" viewBox="0 0 136 136" version="1.1" xmlns="http://www.w3.org/2000/svg" xmlns:xlink="http://www.w3.org/1999/xlink">
    <title>编组</title>
    <g id="页面-1" stroke="none" stroke-width="1" fill="none" fill-rule="evenodd">
        <g id="编组">
            <rect id="矩形" x="0" y="0" width="136" height="136"></rect>
            <g id="repair-json-light" transform="translate(4.000000, 16.000000)" fill="#515151" fill-rule="nonzero">
                <path d="M125.021464,21.1305641 C126.666464,21.1305641 128,19.803848 128,18.1672605 C128,16.530673 126.666464,15.2039568 125.021464,15.2039568 L89.2790347,15.2039568 C87.6340349,15.2039568 86.300499,16.530673 86.300499,18.1672605 C86.300499,19.803848 87.6340349,21.1305641 89.2790347,21.1305641 L125.021464,21.1305641 Z M125.021464,38.9103863 C126.666464,38.9103863 128,37.58367 128,35.9470826 C128,34.3104952 126.666464,32.9837789 125.021464,32.9837789 L98.2146418,32.9837789 C96.5696427,32.9837789 95.2361067,34.3104952 95.2361067,35.9470826 C95.2361067,37.58367 96.5696427,38.9103863 98.2146418,38.9103863 L125.021464,38.9103863 Z M125.021464,56.6902085 C126.666464,56.6902085 128,55.3634923 128,53.7269048 C128,52.0903173 126.666464,50.7636011 125.021464,50.7636011 L104.171714,50.7636011 C102.526714,50.7636011 101.193178,52.0903173 101.193178,53.7269048 C101.193178,55.3634923 102.526714,56.6902085 104.171714,56.6902085 L125.021464,56.6902085 Z M83.9980908,33.9527792 C82.9519979,28.814475 80.9921455,23.9032724 78.2107957,19.450371 C75.0817051,14.462649 70.9057179,10.2069315 65.9690137,6.97486233 C65.3047725,6.53640264 64.6283826,6.11643841 63.9406308,5.71545836 C53.2596015,-0.507479482 41.9411655,-1.16236958 31.5639468,1.42755781 C29.4789718,1.94909923 27.9360903,2.4824939 27.045508,2.85883353 C23.6172132,4.02637518 22.7236525,8.04165166 25.4370987,10.7115883 L36.7138352,21.7943441 L50.0874609,34.945486 L50.0695897,30.749448 L32.1894393,48.6685454 L36.4010889,48.6507655 L11.0418352,23.6582622 C8.2896681,20.9438761 4.21800973,21.9306561 3.0593593,25.6347857 C2.71980619,26.4615475 2.13601318,28.2513829 1.55817726,30.642769 C-0.434463145,38.87779 -0.708488449,47.5632331 1.87092356,55.8012174 C3.65807951,61.5669686 6.89700106,66.7825164 11.2801181,70.9525892 C16.4806416,75.9368661 22.9470428,79.1609404 30.3516828,80.8678034 C38.9179516,82.8443269 47.975679,82.6813452 56.553862,81.2293264 C57.9627094,80.9922621 59.2405013,80.7344547 60.3634093,80.4796106 C61.0484725,80.3225554 61.5429095,80.1951334 61.8199133,80.1180876 L58.9098838,79.3594818 L80.4983112,100.837507 C82.225862,102.556223 85.2580114,103.880819 87.6706255,103.904526 L87.7004108,100.941223 L87.2446948,103.868967 C90.5889644,104.286364 93.9823529,103.701336 96.990464,102.188773 C98.3188907,101.519067 99.5520044,100.659709 100.662998,99.5958825 C102.024189,98.2949927 103.10242,96.7807439 103.921516,95.1094408 C104.774843,93.3416061 105.349483,91.4535928 105.625239,89.5117608 C105.787852,88.4559864 105.857616,87.3881153 105.833737,86.3202822 C105.833737,86.1898968 102.855201,86.3054657 102.855201,86.3054657 L105.830758,86.4299244 C105.935007,83.9792721 104.7287,80.9270695 102.968385,79.1816835 L80.2778996,56.6457589 C79.1083916,55.5235416 77.2506483,55.5408953 76.1025266,56.6847623 C74.9544049,57.8286293 74.9395896,59.6768949 76.0692284,60.8388337 L98.7597138,83.3747583 C99.3405289,83.9555658 99.9124071,85.3957314 99.8796436,86.1810069 L99.8796436,86.5069704 C99.9209804,88.5848711 99.4710471,90.6433696 98.5661093,92.5165501 C98.0418871,93.5833394 97.3746951,94.5227065 96.5377262,95.322799 C95.8586204,95.9717625 95.1080293,96.4933039 94.2919102,96.9081661 C92.2962916,97.9156896 90.1368533,98.1853501 88.3586672,98.0342221 L87.7331747,97.977919 C86.9140773,97.9719919 85.3592817,97.2904327 84.7099609,96.6444319 L63.124512,75.1693703 L61.8913982,73.9455259 L60.2144826,74.4107647 C59.820406,74.5166697 59.4241765,74.6144794 59.0260468,74.7041317 C58.0133445,74.9352695 56.8487371,75.1693705 55.5560526,75.3856915 C47.6897396,76.7191782 39.3826033,76.8673434 31.6950024,75.0952877 C25.2851934,73.6165992 19.7838378,70.8755433 15.4113472,66.6824686 C11.7512381,63.2031604 9.04815787,58.8489312 7.55992692,54.0350885 C5.34389626,46.9705724 5.58813625,39.3133957 7.34845084,32.0295952 C7.64630436,30.7968608 7.96500774,29.6885852 8.28073252,28.7195849 C8.46540179,28.1565573 8.60241439,27.7772544 8.67092079,27.6053827 C8.56965059,27.9550526 7.25909479,28.2721261 6.85103538,27.8691168 L32.204332,52.8586568 L34.3190924,54.9448226 L36.4159817,52.8408771 L54.2931534,34.9247428 L56.3959996,32.8207973 L54.2723036,30.7316681 L40.898678,17.5805263 L29.6219415,6.49480713 C30.035958,6.90077975 29.74704,8.19278018 29.1811181,8.38539494 C29.5087572,8.25500953 29.8066107,8.14240409 30.2623267,7.98534894 C31.0546172,7.71272499 31.9749847,7.43713778 33.0115152,7.17636707 C42.0066933,4.93018285 51.7762907,5.49913712 60.9263526,10.8301205 C61.5161027,11.1738638 62.0998957,11.5353868 62.6747532,11.9146896 C67.0919217,14.8276171 70.5470232,18.4339578 73.159199,22.5914729 C75.5644252,26.4483457 77.2589387,30.7010973 78.1631392,35.1499539 C78.4758855,36.6642021 78.6754473,38.0747347 78.7856532,39.3371021 C78.851181,40.0986711 78.8720308,40.6409557 78.8690522,40.9254328 C78.8558923,42.5620202 80.1787598,43.8993501 81.8237596,43.9124428 C83.4687595,43.9255355 84.8129636,42.6094331 84.8261237,40.9728457 C84.8350593,39.4141479 84.6235833,36.984239 83.9951123,33.9527792 L83.9980908,33.9527792 Z" id="形状"></path>
            </g>
        </g>
    </g>
</svg>