<?xml version="1.0" encoding="UTF-8"?>
<svg width="136px" height="136px" viewBox="0 0 136 136" version="1.1" xmlns="http://www.w3.org/2000/svg" xmlns:xlink="http://www.w3.org/1999/xlink">
    <title>编组</title>
    <g id="页面-1" stroke="none" stroke-width="1" fill="none" fill-rule="evenodd">
        <g id="编组">
            <g id="sort-json-light" transform="translate(18.000000, 14.390521)" fill="#f7f7f0" fill-rule="nonzero">
                <path d="M15.0576388,34.9414565 L33.0296594,34.9414565 L37.401232,48.1289396 L48.0872982,48.1289396 L29.6295474,1.24011076 L29.6295474,0.751685459 L18.4577509,0.751685459 L0,48.1289396 L10.200336,48.1289396 L15.0576388,34.9414565 Z M17.4862903,27.615077 L19.4292114,22.2423986 C21.3721325,17.3581457 22.8293234,12.9623179 23.800784,8.56649023 L24.2865143,9.54334088 C25.7437051,13.4507432 27.200896,17.8465709 28.6580869,21.7539734 L30.601008,27.1266516 L17.4862903,27.1266516 L17.4862903,27.615077 Z M43.2299954,66.2006757 L43.2299954,60.3395721 L6.31449371,60.3395721 L6.31449371,68.1543769 L30.601008,68.1543769 L3.88584229,102.344148 L3.88584229,107.716826 L43.2299954,107.716826 L43.2299954,100.390447 L16.5148297,100.390447 L43.2299954,66.2006757 Z M59.7448251,23.2192493 L68.9737005,13.9391686 L68.9737005,13.9391686 L68.9737005,99.829228 C68.9737005,102.534107 70.6032805,104.972575 73.102408,106.007338 C75.6049031,107.043494 78.4845398,106.481161 80.4133709,104.579658 L98.5695638,86.6807062 C100.457732,84.819291 100.479419,81.7796531 98.6180024,79.8914855 C98.613095,79.8865077 98.6081772,79.8815405 98.6032482,79.8765841 L98.6032482,79.8765841 L98.6032482,79.8765841 C96.720274,77.983163 93.6633984,77.9603502 91.7523758,79.8254576 L78.6883062,92.575642 L78.6883062,92.575642 L78.6883062,6.68558263 C78.6883062,3.98070363 77.0587262,1.54223485 74.5595989,0.507472809 C72.0616064,-0.52681927 69.186326,0.049454945 67.2798526,1.96650614 L52.9446011,16.3812951 C51.0637356,18.2725964 51.0637356,21.327948 52.9446011,23.2192493 L52.9446011,23.2192493 L52.9446011,23.2192493 C54.8120697,25.0970793 57.8482341,25.1054788 59.7260641,23.2380103 C59.732335,23.2317739 59.7385887,23.2255202 59.7448251,23.2192493 Z" id="形状"></path>
            </g>
            <rect id="矩形" x="0" y="0" width="136" height="136"></rect>
        </g>
    </g>
</svg>